<svg width="50" height="50" viewBox="0 0 50 50" fill="none" xmlns="http://www.w3.org/2000/svg">
<path d="M10.525 39.8354C10.5531 39.8084 14.0239 36.5386 14.0239 32.4729C14.0239 29.6709 12.425 26.8938 10.7323 23.9532C8.80832 20.6115 6.81978 17.1563 6.81978 13.1094C6.76283 12.0358 6.92613 10.9618 7.29964 9.95361C7.67314 8.94542 8.24895 8.0243 8.99166 7.2469C9.14791 7.06148 9.30936 6.87398 9.46561 6.66669C9.84548 6.16582 10.4088 5.83636 11.0315 5.7508C11.6543 5.66523 12.2856 5.83057 12.7864 6.21044C13.2873 6.59031 13.6168 7.15359 13.7023 7.77636C13.7879 8.39914 13.6226 9.0304 13.2427 9.53127C13.0323 9.80731 12.8187 10.0625 12.6073 10.3104C12.2288 10.6649 11.9372 11.1021 11.7555 11.5877C11.5737 12.0734 11.5066 12.5945 11.5594 13.1104C11.5594 15.8906 13.1531 18.6584 14.8406 21.5896C16.7677 24.9406 18.7635 28.4052 18.7635 32.4729C18.7422 34.4306 18.2913 36.3597 17.4427 38.124" stroke="#DB514D" stroke-width="1.04167" stroke-linecap="round" stroke-linejoin="round"/>
<path d="M13.6667 7.57916C13.6751 7.61666 14.7917 12.2521 18.323 14.2698C20.7553 15.6594 23.9584 15.6469 27.3532 15.6385C31.2042 15.6208 35.1949 15.6125 38.7074 17.6198C39.6681 18.1029 40.5198 18.7775 41.2101 19.6021C41.9003 20.4267 42.4145 21.3838 42.7209 22.4146C42.8042 22.6427 42.8876 22.875 42.9897 23.1125C43.1154 23.3993 43.183 23.7083 43.1886 24.0214C43.1942 24.3345 43.1377 24.6457 43.0224 24.9369C42.907 25.228 42.735 25.4934 42.5165 25.7177C42.2979 25.942 42.037 26.1208 41.749 26.2437C41.4609 26.3665 41.1513 26.4311 40.8381 26.4336C40.5249 26.4361 40.2144 26.3765 39.9244 26.2582C39.6344 26.14 39.3707 25.9654 39.1486 25.7446C38.9264 25.5238 38.7503 25.2612 38.6303 24.9719C38.4938 24.6521 38.3803 24.3406 38.2678 24.0344C38.1478 23.5298 37.9128 23.0598 37.5812 22.6611C37.2497 22.2623 36.8305 21.9455 36.3563 21.7354C33.9438 20.3562 30.7501 20.3646 27.3678 20.3781C23.499 20.3854 19.5032 20.4031 15.9719 18.3854C14.2534 17.3778 12.7809 16 11.6615 14.3521" stroke="#DB514D" stroke-width="1.04167" stroke-linecap="round" stroke-linejoin="round"/>
<path d="M39.9863 26.3719C39.9488 26.3604 35.379 24.999 31.8634 27.0406C29.4394 28.4469 27.8405 31.224 26.1467 34.1646C24.2228 37.5042 22.2321 40.9594 18.7321 42.9896C17.4671 43.7941 16.006 44.2372 14.5071 44.2708C13.8571 44.2588 13.2096 44.187 12.5728 44.0562C12.3274 44.0093 12.0808 43.9693 11.8332 43.9365C11.5197 43.9041 11.2158 43.8096 10.9392 43.6584C10.6627 43.5072 10.4191 43.3024 10.2227 43.0559C10.0263 42.8094 9.88108 42.5263 9.79546 42.223C9.70984 41.9196 9.68558 41.6023 9.7241 41.2895C9.76262 40.9767 9.86314 40.6747 10.0198 40.4013C10.1764 40.1278 10.3861 39.8883 10.6364 39.6968C10.8867 39.5054 11.1727 39.3658 11.4777 39.2862C11.7826 39.2066 12.1004 39.1886 12.4123 39.2333C12.7582 39.275 13.0853 39.3333 13.4061 39.3896C13.9026 39.5392 14.427 39.572 14.9383 39.4857C15.4497 39.3993 15.9341 39.196 16.354 38.8917C18.7582 37.4958 20.3519 34.7281 22.0405 31.7979C23.9707 28.449 25.9655 24.9844 29.4842 22.9417C31.2608 21.9382 33.2424 21.3519 35.279 21.2271" stroke="#DB514D" stroke-width="1.04167" stroke-linecap="round" stroke-linejoin="round"/>
</svg>
