<svg width="98" height="30" viewBox="0 0 98 30" fill="none" xmlns="http://www.w3.org/2000/svg">
<rect width="98" height="30" rx="15" fill="white"/>
<path d="M8.92276 7.45455H11.8986L15.4569 13.8892H15.5989L19.1571 7.45455H22.133L16.8418 16.5739V22H14.214V16.5739L8.92276 7.45455ZM29.3329 11.0909V13.0795H23.0616V11.0909H29.3329ZM24.6099 8.47727H27.1809V18.7188C27.1809 19.0644 27.233 19.3295 27.3372 19.5142C27.4461 19.6941 27.5881 19.8172 27.7633 19.8835C27.9385 19.9498 28.1326 19.983 28.3457 19.983C28.5067 19.983 28.6535 19.9711 28.786 19.9474C28.9234 19.9238 29.0275 19.9025 29.0985 19.8835L29.5318 21.8935C29.3945 21.9408 29.198 21.9929 28.9423 22.0497C28.6913 22.1065 28.3836 22.1397 28.019 22.1491C27.3751 22.1681 26.795 22.071 26.2789 21.858C25.7628 21.6402 25.3533 21.304 25.0502 20.8494C24.752 20.3949 24.6052 19.8267 24.6099 19.1449V8.47727ZM36.1245 22.2131C35.0355 22.2131 34.1003 21.974 33.3191 21.4957C32.5426 21.0175 31.9436 20.357 31.5222 19.5142C31.1055 18.6667 30.8972 17.6913 30.8972 16.5881C30.8972 15.4801 31.1103 14.5024 31.5364 13.6548C31.9625 12.8026 32.5639 12.1397 33.3404 11.6662C34.1216 11.188 35.0449 10.9489 36.1103 10.9489C36.9957 10.9489 37.7793 11.1122 38.4611 11.4389C39.1477 11.7609 39.6945 12.2178 40.1017 12.8097C40.5089 13.3968 40.7409 14.0833 40.7978 14.8693H38.3404C38.2409 14.3437 38.0042 13.9058 37.6301 13.5554C37.2608 13.2003 36.766 13.0227 36.1458 13.0227C35.6202 13.0227 35.1586 13.1648 34.7608 13.4489C34.3631 13.7282 34.053 14.1307 33.8304 14.6562C33.6126 15.1818 33.5037 15.8116 33.5037 16.5455C33.5037 17.2888 33.6126 17.928 33.8304 18.4631C34.0482 18.9934 34.3536 19.4029 34.7466 19.6918C35.1444 19.9759 35.6107 20.1179 36.1458 20.1179C36.5246 20.1179 36.8631 20.0469 37.1614 19.9048C37.4644 19.758 37.7177 19.5473 37.9213 19.2727C38.1249 18.9981 38.2646 18.6643 38.3404 18.2713H40.7978C40.7362 19.0431 40.5089 19.7273 40.1159 20.3239C39.723 20.9157 39.1879 21.3797 38.5108 21.7159C37.8337 22.0473 37.0383 22.2131 36.1245 22.2131ZM45.4799 15.608V22H42.9089V7.45455H45.4231V12.9446H45.551C45.8066 12.3291 46.202 11.8437 46.737 11.4886C47.2768 11.1288 47.9634 10.9489 48.7967 10.9489C49.5543 10.9489 50.2148 11.1075 50.7782 11.4247C51.3417 11.742 51.7773 12.206 52.0851 12.8168C52.3976 13.4276 52.5538 14.1733 52.5538 15.054V22H49.9828V15.4517C49.9828 14.7178 49.7934 14.1473 49.4146 13.7401C49.0405 13.3281 48.515 13.1222 47.8379 13.1222C47.3833 13.1222 46.9761 13.2216 46.6163 13.4205C46.2612 13.6146 45.9818 13.8963 45.7782 14.2656C45.5794 14.6349 45.4799 15.0824 45.4799 15.608Z" fill="#52443A"/>
<path d="M60.3166 22.1989C59.2607 22.1989 58.3232 22.0213 57.5041 21.6662C56.6897 21.3111 56.0505 20.8258 55.5865 20.2102C55.1272 19.59 54.8999 18.8868 54.9047 18.1009C54.8999 17.4901 55.0325 16.929 55.3024 16.4176C55.5723 15.9062 55.9368 15.4801 56.3961 15.1392C56.8601 14.7936 57.3762 14.5734 57.9444 14.4787V14.3793C57.1963 14.2135 56.5903 13.8324 56.1262 13.2358C55.667 12.6345 55.4397 11.9408 55.4444 11.1548C55.4397 10.4067 55.648 9.73911 56.0694 9.15199C56.4908 8.56487 57.0685 8.10322 57.8024 7.76705C58.5363 7.42614 59.3743 7.25568 60.3166 7.25568C61.2493 7.25568 62.0803 7.42614 62.8095 7.76705C63.5434 8.10322 64.121 8.56487 64.5424 9.15199C64.9686 9.73911 65.1816 10.4067 65.1816 11.1548C65.1816 11.9408 64.9473 12.6345 64.4785 13.2358C64.0145 13.8324 63.4155 14.2135 62.6816 14.3793V14.4787C63.2498 14.5734 63.7612 14.7936 64.2157 15.1392C64.675 15.4801 65.0396 15.9062 65.3095 16.4176C65.5841 16.929 65.7214 17.4901 65.7214 18.1009C65.7214 18.8868 65.4894 19.59 65.0254 20.2102C64.5614 20.8258 63.9222 21.3111 63.1078 21.6662C62.2981 22.0213 61.3677 22.1989 60.3166 22.1989ZM60.3166 20.1676C60.8611 20.1676 61.3346 20.0753 61.737 19.8906C62.1395 19.7012 62.452 19.4361 62.6745 19.0952C62.8971 18.7543 63.0107 18.3613 63.0154 17.9162C63.0107 17.4522 62.89 17.0426 62.6532 16.6875C62.4212 16.3277 62.1016 16.0459 61.6944 15.8423C61.292 15.6387 60.8327 15.5369 60.3166 15.5369C59.7958 15.5369 59.3317 15.6387 58.9245 15.8423C58.5173 16.0459 58.1954 16.3277 57.9586 16.6875C57.7266 17.0426 57.613 17.4522 57.6177 17.9162C57.613 18.3613 57.7219 18.7543 57.9444 19.0952C58.167 19.4313 58.4795 19.6941 58.8819 19.8835C59.2891 20.0729 59.7673 20.1676 60.3166 20.1676ZM60.3166 13.5412C60.7617 13.5412 61.1547 13.4512 61.4956 13.2713C61.8412 13.0914 62.1135 12.8404 62.3123 12.5185C62.5112 12.1965 62.613 11.8248 62.6177 11.4034C62.613 10.9867 62.5136 10.6222 62.3194 10.3097C62.1253 9.99242 61.8554 9.74858 61.5098 9.57812C61.1641 9.40294 60.7664 9.31534 60.3166 9.31534C59.8573 9.31534 59.4525 9.40294 59.1021 9.57812C58.7565 9.74858 58.4866 9.99242 58.2924 10.3097C58.103 10.6222 58.0107 10.9867 58.0154 11.4034C58.0107 11.8248 58.1054 12.1965 58.2995 12.5185C58.4984 12.8357 58.7707 13.0866 59.1163 13.2713C59.4667 13.4512 59.8668 13.5412 60.3166 13.5412ZM69.2388 22.1562C68.8079 22.1562 68.4386 22.0047 68.1309 21.7017C67.8231 21.3987 67.6716 21.0294 67.6763 20.5938C67.6716 20.1676 67.8231 19.803 68.1309 19.5C68.4386 19.197 68.8079 19.0455 69.2388 19.0455C69.6555 19.0455 70.0177 19.197 70.3255 19.5C70.638 19.803 70.7966 20.1676 70.8013 20.5938C70.7966 20.8826 70.7208 21.1454 70.574 21.3821C70.432 21.6188 70.2426 21.8082 70.0059 21.9503C69.7739 22.0876 69.5182 22.1562 69.2388 22.1562Z" fill="#F93C30" fill-opacity="0.92"/>
<path d="M73.4558 22V11.0909H76.0268V22H73.4558ZM74.7484 9.54261C74.3412 9.54261 73.9908 9.40767 73.6973 9.13778C73.4037 8.86316 73.2569 8.53409 73.2569 8.15057C73.2569 7.76231 73.4037 7.43324 73.6973 7.16335C73.9908 6.88873 74.3412 6.75142 74.7484 6.75142C75.1603 6.75142 75.5107 6.88873 75.7995 7.16335C76.0931 7.43324 76.2399 7.76231 76.2399 8.15057C76.2399 8.53409 76.0931 8.86316 75.7995 9.13778C75.5107 9.40767 75.1603 9.54261 74.7484 9.54261ZM83.4292 22.2131C82.3638 22.2131 81.4405 21.9787 80.6593 21.5099C79.878 21.0412 79.272 20.3854 78.8411 19.5426C78.415 18.6998 78.2019 17.715 78.2019 16.5881C78.2019 15.4612 78.415 14.474 78.8411 13.6264C79.272 12.7789 79.878 12.1207 80.6593 11.652C81.4405 11.1832 82.3638 10.9489 83.4292 10.9489C84.4945 10.9489 85.4178 11.1832 86.199 11.652C86.9803 12.1207 87.584 12.7789 88.0101 13.6264C88.441 14.474 88.6564 15.4612 88.6564 16.5881C88.6564 17.715 88.441 18.6998 88.0101 19.5426C87.584 20.3854 86.9803 21.0412 86.199 21.5099C85.4178 21.9787 84.4945 22.2131 83.4292 22.2131ZM83.4434 20.1534C84.021 20.1534 84.504 19.9948 84.8922 19.6776C85.2805 19.3556 85.5693 18.9247 85.7587 18.3849C85.9528 17.8452 86.0499 17.2438 86.0499 16.581C86.0499 15.9134 85.9528 15.3097 85.7587 14.7699C85.5693 14.2254 85.2805 13.7921 84.8922 13.4702C84.504 13.1482 84.021 12.9872 83.4434 12.9872C82.8515 12.9872 82.3591 13.1482 81.9661 13.4702C81.5778 13.7921 81.2866 14.2254 81.0925 14.7699C80.9031 15.3097 80.8084 15.9134 80.8084 16.581C80.8084 17.2438 80.9031 17.8452 81.0925 18.3849C81.2866 18.9247 81.5778 19.3556 81.9661 19.6776C82.3591 19.9948 82.8515 20.1534 83.4434 20.1534Z" fill="black"/>
</svg>
