<svg width="98" height="29" viewBox="0 0 98 29" fill="none" xmlns="http://www.w3.org/2000/svg">
<path d="M0.907315 5.54545H4.47834L8.74822 13.267H8.91868L13.1886 5.54545H16.7596L10.4102 16.4886V23H7.25675V16.4886L0.907315 5.54545ZM25.3995 9.90909V12.2955H17.8739V9.90909H25.3995ZM19.7319 6.77273H22.8171V19.0625C22.8171 19.4773 22.8796 19.7955 23.0046 20.017C23.1353 20.233 23.3058 20.3807 23.516 20.4602C23.7262 20.5398 23.9592 20.5795 24.2148 20.5795C24.408 20.5795 24.5842 20.5653 24.7433 20.5369C24.908 20.5085 25.033 20.483 25.1183 20.4602L25.6381 22.8722C25.4734 22.929 25.2376 22.9915 24.9308 23.0597C24.6296 23.1278 24.2603 23.1676 23.8228 23.179C23.0501 23.2017 22.354 23.0852 21.7347 22.8295C21.1154 22.5682 20.6239 22.1648 20.2603 21.6193C19.9023 21.0739 19.7262 20.392 19.7319 19.5739V6.77273ZM33.5494 23.2557C32.2425 23.2557 31.1204 22.9688 30.1829 22.3949C29.2511 21.821 28.5323 21.0284 28.0266 20.017C27.5266 19 27.2766 17.8295 27.2766 16.5057C27.2766 15.1761 27.5323 14.0028 28.0437 12.9858C28.555 11.9631 29.2766 11.1676 30.2085 10.5994C31.146 10.0256 32.2539 9.73864 33.5323 9.73864C34.5948 9.73864 35.5352 9.93466 36.3533 10.3267C37.1772 10.7131 37.8335 11.2614 38.3221 11.9716C38.8107 12.6761 39.0891 13.5 39.1573 14.4432H36.2085C36.0891 13.8125 35.805 13.2869 35.3562 12.8665C34.913 12.4403 34.3192 12.2273 33.5749 12.2273C32.9442 12.2273 32.3903 12.3977 31.913 12.7386C31.4357 13.0739 31.0636 13.5568 30.7965 14.1875C30.5352 14.8182 30.4045 15.5739 30.4045 16.4545C30.4045 17.3466 30.5352 18.1136 30.7965 18.7557C31.0579 19.392 31.4244 19.8835 31.896 20.2301C32.3732 20.571 32.9329 20.7415 33.5749 20.7415C34.0295 20.7415 34.4357 20.6562 34.7937 20.4858C35.1573 20.3097 35.4613 20.0568 35.7056 19.7273C35.9499 19.3977 36.1175 18.9972 36.2085 18.5256H39.1573C39.0835 19.4517 38.8107 20.2727 38.3391 20.9886C37.8675 21.6989 37.2255 22.2557 36.413 22.6591C35.6005 23.0568 34.646 23.2557 33.5494 23.2557ZM44.7759 15.3295V23H41.6907V5.54545H44.7077V12.1335H44.8612C45.168 11.3949 45.6424 10.8125 46.2844 10.3864C46.9322 9.95455 47.756 9.73864 48.756 9.73864C49.6651 9.73864 50.4577 9.92898 51.1339 10.3097C51.81 10.6903 52.3327 11.2472 52.7021 11.9801C53.0771 12.7131 53.2646 13.608 53.2646 14.6648V23H50.1793V15.142C50.1793 14.2614 49.9521 13.5767 49.4975 13.0881C49.0487 12.5937 48.418 12.3466 47.6055 12.3466C47.06 12.3466 46.5714 12.4659 46.1396 12.7045C45.7134 12.9375 45.3782 13.2756 45.1339 13.7188C44.8952 14.1619 44.7759 14.6989 44.7759 15.3295Z" fill="#52443A"/>
<path d="M62.5799 23.2386C61.3129 23.2386 60.1879 23.0256 59.2049 22.5994C58.2276 22.1733 57.4606 21.5909 56.9038 20.8523C56.3526 20.108 56.0799 19.2642 56.0856 18.321C56.0799 17.5881 56.239 16.9148 56.5629 16.3011C56.8867 15.6875 57.3242 15.1761 57.8754 14.767C58.4322 14.3523 59.0515 14.0881 59.7333 13.9744V13.8551C58.8356 13.6562 58.1083 13.1989 57.5515 12.483C57.0004 11.7614 56.7276 10.929 56.7333 9.98579C56.7276 9.08807 56.9776 8.28693 57.4833 7.58239C57.989 6.87784 58.6822 6.32386 59.5629 5.92045C60.4435 5.51136 61.4492 5.30682 62.5799 5.30682C63.6992 5.30682 64.6964 5.51136 65.5714 5.92045C66.4521 6.32386 67.1452 6.87784 67.6509 7.58239C68.1623 8.28693 68.418 9.08807 68.418 9.98579C68.418 10.929 68.1367 11.7614 67.5742 12.483C67.0174 13.1989 66.2987 13.6562 65.418 13.8551V13.9744C66.0998 14.0881 66.7134 14.3523 67.2589 14.767C67.81 15.1761 68.2475 15.6875 68.5714 16.3011C68.9009 16.9148 69.0657 17.5881 69.0657 18.321C69.0657 19.2642 68.7873 20.108 68.2305 20.8523C67.6737 21.5909 66.9066 22.1733 65.9293 22.5994C64.9577 23.0256 63.8413 23.2386 62.5799 23.2386ZM62.5799 20.8011C63.2333 20.8011 63.8015 20.6903 64.2844 20.4688C64.7674 20.2415 65.1424 19.9233 65.4094 19.5142C65.6765 19.1051 65.8129 18.6335 65.8185 18.0994C65.8129 17.5426 65.668 17.0511 65.3839 16.625C65.1055 16.1932 64.7219 15.8551 64.2333 15.6108C63.7504 15.3665 63.1992 15.2443 62.5799 15.2443C61.9549 15.2443 61.3981 15.3665 60.9094 15.6108C60.4208 15.8551 60.0344 16.1932 59.7504 16.625C59.4719 17.0511 59.3356 17.5426 59.3413 18.0994C59.3356 18.6335 59.4663 19.1051 59.7333 19.5142C60.0004 19.9176 60.3754 20.233 60.8583 20.4602C61.3469 20.6875 61.9208 20.8011 62.5799 20.8011ZM62.5799 12.8494C63.114 12.8494 63.5856 12.7415 63.9947 12.5256C64.4094 12.3097 64.7362 12.0085 64.9748 11.6222C65.2134 11.2358 65.3356 10.7898 65.3413 10.2841C65.3356 9.78409 65.2163 9.34659 64.9833 8.97159C64.7504 8.59091 64.4265 8.2983 64.0117 8.09375C63.5969 7.88352 63.1197 7.77841 62.5799 7.77841C62.0288 7.77841 61.543 7.88352 61.1225 8.09375C60.7077 8.2983 60.3839 8.59091 60.1509 8.97159C59.9237 9.34659 59.8129 9.78409 59.8185 10.2841C59.8129 10.7898 59.9265 11.2358 60.1594 11.6222C60.3981 12.0028 60.7248 12.304 61.1396 12.5256C61.56 12.7415 62.0401 12.8494 62.5799 12.8494ZM73.2866 23.1875C72.7695 23.1875 72.3263 23.0057 71.957 22.642C71.5877 22.2784 71.4059 21.8352 71.4116 21.3125C71.4059 20.8011 71.5877 20.3636 71.957 20C72.3263 19.6364 72.7695 19.4545 73.2866 19.4545C73.7866 19.4545 74.2212 19.6364 74.5906 20C74.9656 20.3636 75.1559 20.8011 75.1616 21.3125C75.1559 21.6591 75.065 21.9744 74.8888 22.2585C74.7184 22.5426 74.4911 22.7699 74.207 22.9403C73.9286 23.1051 73.6218 23.1875 73.2866 23.1875Z" fill="#F93C30" fill-opacity="0.92"/>
<path d="M78.3469 23V9.90909H81.4322V23H78.3469ZM79.8981 8.05114C79.4094 8.05114 78.989 7.8892 78.6367 7.56534C78.2844 7.23579 78.1083 6.84091 78.1083 6.38068C78.1083 5.91477 78.2844 5.51989 78.6367 5.19602C78.989 4.86648 79.4094 4.7017 79.8981 4.7017C80.3924 4.7017 80.8129 4.86648 81.1594 5.19602C81.5117 5.51989 81.6879 5.91477 81.6879 6.38068C81.6879 6.84091 81.5117 7.23579 81.1594 7.56534C80.8129 7.8892 80.3924 8.05114 79.8981 8.05114ZM90.315 23.2557C89.0366 23.2557 87.9286 22.9744 86.9911 22.4119C86.0536 21.8494 85.3263 21.0625 84.8093 20.0511C84.2979 19.0398 84.0423 17.858 84.0423 16.5057C84.0423 15.1534 84.2979 13.9687 84.8093 12.9517C85.3263 11.9347 86.0536 11.1449 86.9911 10.5824C87.9286 10.0199 89.0366 9.73864 90.315 9.73864C91.5934 9.73864 92.7013 10.0199 93.6388 10.5824C94.5763 11.1449 95.3008 11.9347 95.8121 12.9517C96.3292 13.9687 96.5877 15.1534 96.5877 16.5057C96.5877 17.858 96.3292 19.0398 95.8121 20.0511C95.3008 21.0625 94.5763 21.8494 93.6388 22.4119C92.7013 22.9744 91.5934 23.2557 90.315 23.2557ZM90.332 20.7841C91.0252 20.7841 91.6048 20.5937 92.0707 20.2131C92.5366 19.8267 92.8832 19.3097 93.1104 18.6619C93.3434 18.0142 93.4599 17.2926 93.4599 16.4972C93.4599 15.696 93.3434 14.9716 93.1104 14.3239C92.8832 13.6705 92.5366 13.1506 92.0707 12.7642C91.6048 12.3778 91.0252 12.1847 90.332 12.1847C89.6218 12.1847 89.0309 12.3778 88.5593 12.7642C88.0934 13.1506 87.744 13.6705 87.511 14.3239C87.2837 14.9716 87.1701 15.696 87.1701 16.4972C87.1701 17.2926 87.2837 18.0142 87.511 18.6619C87.744 19.3097 88.0934 19.8267 88.5593 20.2131C89.0309 20.5937 89.6218 20.7841 90.332 20.7841Z" fill="black"/>
</svg>
